<svg width="15" height="4" viewBox="0 0 15 4" fill="none" xmlns="http://www.w3.org/2000/svg">
<path d="M2.47655 0.0516357C3.35859 0.0516357 4.07363 0.756667 4.07363 1.62637C4.07363 2.49607 3.35859 3.2011 2.47655 3.2011C1.5945 3.2011 0.879463 2.49607 0.879463 1.62637C0.879463 0.756668 1.5945 0.0516358 2.47655 0.0516357Z" fill="#FCFCFD"/>
<path d="M7.80016 0.0516357C8.68221 0.0516357 9.39724 0.756667 9.39724 1.62637C9.39724 2.49607 8.68221 3.2011 7.80016 3.2011C6.91812 3.2011 6.20308 2.49607 6.20308 1.62637C6.20308 0.756668 6.91812 0.0516358 7.80016 0.0516357Z" fill="#FCFCFD"/>
<path d="M13.1238 0.0516357C14.0058 0.0516357 14.7209 0.756667 14.7209 1.62637C14.7209 2.49607 14.0058 3.2011 13.1238 3.2011C12.2417 3.2011 11.5267 2.49607 11.5267 1.62637C11.5267 0.756668 12.2417 0.0516358 13.1238 0.0516357Z" fill="#FCFCFD"/>
</svg>
